<svg xmlns="http://www.w3.org/2000/svg" xmlns:xlink="http://www.w3.org/1999/xlink" id="body_5" preserveAspectRatio="xMinYMin meet" viewBox="0 0 1133 377"><defs><clipPath id="1"><path d="M0 283L0 -0.4500122L0 -0.4500122L850.3 -0.4500122L850.3 -0.4500122L850.3 283L850.3 283L0 283z" /></clipPath><clipPath id="2"><path d="M0 -0.4500122L850.3 -0.4500122L850.3 -0.4500122L850.3 283L850.3 283L0 283z" /></clipPath><clipPath id="3"><path d="M0 -0.4500122L850.3 -0.4500122L850.3 -0.4500122L850.3 283L850.3 283L0 283z" /></clipPath><clipPath id="4"><path d="M60 110.55L162 110.55L162 110.55L162 174.55L162 174.55L60 174.55z" /></clipPath><clipPath id="5"><path d="M0 -0.4500122L850.3 -0.4500122L850.3 -0.4500122L850.3 283L850.3 283L0 283z" /></clipPath><clipPath id="6"><path d="M237 -0.4500122L799 -0.4500122L799 -0.4500122L799 287.55L799 287.55L237 287.55z" /></clipPath><clipPath id="7"><path d="M0 -0.4500122L850.3 -0.4500122L850.3 -0.4500122L850.3 283L850.3 283L0 283z" /></clipPath><clipPath id="8"><path d="M0 -0.4500122L853 -0.4500122L853 -0.4500122L853 287.55L853 287.55L0 287.55z" /></clipPath></defs><g transform="matrix(1.333333 0 0 1.333333 0 0)"><g><g clip-path="url(#1)"><g clip-path="url(#2)"><path transform="matrix(1 0 0 -1 0 283)" d="M0 283.45L850.32 283.45L850.32 283.45L850.32 0.01000977L850.32 0.01000977L0 0.01000977z" stroke="none" fill="#FFFFFF" fill-rule="evenodd" /><path transform="matrix(1 0 0 -1 0 283)" d="M0 283.45L850.32 283.45L850.32 283.45L850.32 0.4900208L850.32 0.4900208L0 0.4900208z" stroke="none" fill="#010101" fill-rule="evenodd" /></g><g clip-path="url(#3)"><g clip-path="url(#4)"><g transform="matrix(0.75 0 0 0.7473418 60 110.55)"><g transform="matrix(1 0 0 1 0 0)"><image x="0" y="0" xlink:href="img_16.png" width="132" height="79" /></g></g></g></g><g clip-path="url(#5)"><g clip-path="url(#6)"><g transform="matrix(0.7502819 0 0 0.7485714 237 -0.4500122)"><g transform="matrix(1 0 0 1 0 0)"><image x="0" y="0" xlink:href="img_17.png" width="745" height="378" /></g></g></g></g><g clip-path="url(#7)"><g clip-path="url(#8)"><g transform="matrix(0.7495238 0 0 0.7485714 0 -0.4500122)"><g transform="matrix(1 0 0 1 0 0)"><image x="0" y="0" xlink:href="img_18.png" width="1134" height="378" /></g></g></g></g></g></g></g></svg>