<svg xmlns="http://www.w3.org/2000/svg" xmlns:xlink="http://www.w3.org/1999/xlink" id="body_6" preserveAspectRatio="xMinYMin meet" viewBox="0 0 1133 377"><defs><clipPath id="1"><path d="M0 283L0 -0.4500122L0 -0.4500122L850.3 -0.4500122L850.3 -0.4500122L850.3 283L850.3 283L0 283z" /></clipPath><clipPath id="2"><path d="M0 -0.4500122L850.3 -0.4500122L850.3 -0.4500122L850.3 283L850.3 283L0 283z" /></clipPath><clipPath id="3"><path d="M0 -0.4500122L850.3 -0.4500122L850.3 -0.4500122L850.3 283L850.3 283L0 283z" /></clipPath><clipPath id="4"><path d="M3 45.54999L134 45.54999L134 45.54999L134 91.54999L134 91.54999L3 91.54999z" /></clipPath><clipPath id="5"><path d="M0 -0.4500122L850.3 -0.4500122L850.3 -0.4500122L850.3 283L850.3 283L0 283z" /></clipPath><clipPath id="6"><path d="M24 88.54999L310 88.54999L310 88.54999L310 282.55L310 282.55L24 282.55z" /></clipPath><clipPath id="7"><path d="M0 -0.4500122L850.3 -0.4500122L850.3 -0.4500122L850.3 283L850.3 283L0 283z" /></clipPath><clipPath id="8"><path d="M322 28.54999L507 28.54999L507 28.54999L507 155.55L507 155.55L322 155.55z" /></clipPath><clipPath id="9"><path d="M0 -0.4500122L850.3 -0.4500122L850.3 -0.4500122L850.3 283L850.3 283L0 283z" /></clipPath><clipPath id="10"><path d="M321 154.55L508 154.55L508 154.55L508 282.55L508 282.55L321 282.55z" /></clipPath><clipPath id="11"><path d="M0 -0.4500122L850.3 -0.4500122L850.3 -0.4500122L850.3 283L850.3 283L0 283z" /></clipPath><clipPath id="12"><path d="M511 28.54999L844 28.54999L844 28.54999L844 282.55L844 282.55L511 282.55z" /></clipPath><clipPath id="13"><path d="M0 -0.4500122L850.3 -0.4500122L850.3 -0.4500122L850.3 283L850.3 283L0 283z" /></clipPath><clipPath id="14"><path d="M0 -0.4500122L853 -0.4500122L853 -0.4500122L853 287.55L853 287.55L0 287.55z" /></clipPath></defs><g transform="matrix(1.333333 0 0 1.333333 0 0)"><g><g clip-path="url(#1)"><g clip-path="url(#2)"><path transform="matrix(1 0 0 -1 0 283)" d="M0 283.45L850.32 283.45L850.32 283.45L850.32 0.01000977L850.32 0.01000977L0 0.01000977z" stroke="none" fill="#FFFFFF" fill-rule="evenodd" /><path transform="matrix(1 0 0 -1 0 283)" d="M0 283.45L850.32 283.45L850.32 283.45L850.32 0.4900208L850.32 0.4900208L0 0.4900208z" stroke="none" fill="#010101" fill-rule="evenodd" /><path transform="matrix(1 0 0 -1 0 283)" d="M0 237.01L135.12 237.01L135.12 237.01L135.12 206.05L135.12 206.05L0 206.05z" stroke="none" fill="#F2F2F2" fill-rule="evenodd" /></g><g clip-path="url(#3)"><g clip-path="url(#4)"><g transform="matrix(0.7487719 0 0 0.7461818 3 45.50998)"><g transform="matrix(1 0 0 1 0 0)"><image x="0" y="0" xlink:href="img_20.png" width="171" height="55" /></g></g></g></g><g clip-path="url(#5)"><g clip-path="url(#6)"><g transform="matrix(0.750557 0 0 0.7470356 24 88.59)"><g transform="matrix(1 0 0 1 0 0)"><image x="0" y="0" xlink:href="img_21.png" width="377" height="253" /></g></g></g></g><g clip-path="url(#7)"><g clip-path="url(#8)"><g transform="matrix(0.7491357 0 0 0.7487116 321.96 28.59)"><g transform="matrix(1 0 0 1 0 0)"><image x="0" y="0" xlink:href="img_22.png" width="243" height="163" /></g></g></g></g><g clip-path="url(#9)"><g clip-path="url(#10)"><g transform="matrix(0.7508571 0 0 0.7454545 321 154.59)"><g transform="matrix(1 0 0 1 0 0)"><image x="0" y="0" xlink:href="img_23.png" width="245" height="165" /></g></g></g></g><g clip-path="url(#11)"><g clip-path="url(#12)"><g transform="matrix(0.75 0 0 0.7477478 510.96 28.59)"><g transform="matrix(1 0 0 1 0 0)"><image x="0" y="0" xlink:href="img_24.png" width="440" height="333" /></g></g></g></g><g clip-path="url(#13)"><g clip-path="url(#14)"><g transform="matrix(0.7495238 0 0 0.7485714 0 -0.4500122)"><g transform="matrix(1 0 0 1 0 0)"><image x="0" y="0" xlink:href="img_25.png" width="1134" height="378" /></g></g></g></g></g></g></g></svg>