<svg xmlns="http://www.w3.org/2000/svg" xmlns:xlink="http://www.w3.org/1999/xlink" id="body_14" preserveAspectRatio="xMinYMin meet" viewBox="0 0 1133 377"><defs><clipPath id="1"><path d="M0 283L0 -0.4500122L0 -0.4500122L850.3 -0.4500122L850.3 -0.4500122L850.3 283L850.3 283L0 283z" /></clipPath><clipPath id="2"><path d="M0 -0.4500122L850.3 -0.4500122L850.3 -0.4500122L850.3 283L850.3 283L0 283z" /></clipPath><clipPath id="3"><path d="M0 -0.4500122L850.3 -0.4500122L850.3 -0.4500122L850.3 283L850.3 283L0 283z" /></clipPath><clipPath id="4"><path d="M3 45.54999L134 45.54999L134 45.54999L134 91.54999L134 91.54999L3 91.54999z" /></clipPath><clipPath id="5"><path d="M0 -0.4500122L850.3 -0.4500122L850.3 -0.4500122L850.3 283L850.3 283L0 283z" /></clipPath><clipPath id="6"><path d="M163 44.54999L702 44.54999L702 44.54999L702 270.55L702 270.55L163 270.55z" /></clipPath><clipPath id="7"><path d="M0 -0.4500122L850.3 -0.4500122L850.3 -0.4500122L850.3 283L850.3 283L0 283z" /></clipPath><clipPath id="8"><path d="M0 -0.4500122L853 -0.4500122L853 -0.4500122L853 287.55L853 287.55L0 287.55z" /></clipPath></defs><g transform="matrix(1.333333 0 0 1.333333 0 0)"><g><g clip-path="url(#1)"><g clip-path="url(#2)"><path transform="matrix(1 0 0 -1 0 283)" d="M0 283.45L850.32 283.45L850.32 283.45L850.32 0.01000977L850.32 0.01000977L0 0.01000977z" stroke="none" fill="#FFFFFF" fill-rule="evenodd" /><path transform="matrix(1 0 0 -1 0 283)" d="M0 283.45L850.32 283.45L850.32 283.45L850.32 0.4900208L850.32 0.4900208L0 0.4900208z" stroke="none" fill="#010101" fill-rule="evenodd" /><path transform="matrix(1 0 0 -1 0 283)" d="M0 237.01L135.12 237.01L135.12 237.01L135.12 206.05L135.12 206.05L0 206.05z" stroke="none" fill="#F2F2F2" fill-rule="evenodd" /></g><g clip-path="url(#3)"><g clip-path="url(#4)"><g transform="matrix(0.7487719 0 0 0.7461818 3 45.50998)"><g transform="matrix(1 0 0 1 0 0)"><image x="0" y="0" xlink:href="img_60.png" width="171" height="55" /></g></g></g></g><g clip-path="url(#5)"><g clip-path="url(#6)"><g transform="matrix(0.7497063 0 0 0.7492881 162.96 44.55)"><g transform="matrix(1 0 0 1 0 0)"><image x="0" y="0" xlink:href="img_61.png" width="715" height="295" /></g></g></g></g><g clip-path="url(#7)"><g clip-path="url(#8)"><g transform="matrix(0.7495238 0 0 0.7485714 0 -0.4500122)"><g transform="matrix(1 0 0 1 0 0)"><image x="0" y="0" xlink:href="img_62.png" width="1134" height="378" /></g></g></g></g></g></g></g></svg>