<svg xmlns="http://www.w3.org/2000/svg" xmlns:xlink="http://www.w3.org/1999/xlink" id="body_3" preserveAspectRatio="xMinYMin meet" viewBox="0 0 1133 377"><defs><clipPath id="1"><path d="M0 283L0 -0.4500122L0 -0.4500122L850.3 -0.4500122L850.3 -0.4500122L850.3 283L850.3 283L0 283z" /></clipPath><clipPath id="2"><path d="M0 -0.4500122L850.3 -0.4500122L850.3 -0.4500122L850.3 283L850.3 283L0 283z" /></clipPath><clipPath id="3"><path d="M0 -0.4500122L850.3 -0.4500122L850.3 -0.4500122L850.3 283L850.3 283L0 283z" /></clipPath><clipPath id="4"><path d="M56.3 45.94998L424.15 45.94998L424.15 45.94998L424.15 260.6L424.15 260.6L56.3 260.6z" /></clipPath><clipPath id="5"><path d="M56.3 45.94998L121.65 45.94998L121.65 45.94998L121.65 65.59999L121.65 65.59999L56.3 65.59999z" /></clipPath><clipPath id="6"><path d="M56.3 45.94998L424.15 45.94998L424.15 45.94998L424.15 260.6L424.15 260.6L56.3 260.6z" /></clipPath><clipPath id="7"><path d="M121.6 45.94998L319.65 45.94998L319.65 45.94998L319.65 65.59999L319.65 65.59999L121.6 65.59999z" /></clipPath><clipPath id="8"><path d="M56.3 45.94998L424.15 45.94998L424.15 45.94998L424.15 260.6L424.15 260.6L56.3 260.6z" /></clipPath><clipPath id="9"><path d="M319.6 45.94998L421.2 45.94998L421.2 45.94998L421.2 65.59999L421.2 65.59999L319.6 65.59999z" /></clipPath><clipPath id="10"><path d="M56.3 45.94998L424.15 45.94998L424.15 45.94998L424.15 260.6L424.15 260.6L56.3 260.6z" /></clipPath><clipPath id="11"><path d="M56.3 65.59999L121.65 65.59999L121.65 65.59999L121.65 84.79999L121.65 84.79999L56.3 84.79999z" /></clipPath><clipPath id="12"><path d="M56.3 45.94998L424.15 45.94998L424.15 45.94998L424.15 260.6L424.15 260.6L56.3 260.6z" /></clipPath><clipPath id="13"><path d="M121.6 65.59999L319.65 65.59999L319.65 65.59999L319.65 84.79999L319.65 84.79999L121.6 84.79999z" /></clipPath><clipPath id="14"><path d="M56.3 45.94998L424.15 45.94998L424.15 45.94998L424.15 260.6L424.15 260.6L56.3 260.6z" /></clipPath><clipPath id="15"><path d="M319.6 65.59999L421.2 65.59999L421.2 65.59999L421.2 84.79999L421.2 84.79999L319.6 84.79999z" /></clipPath><clipPath id="16"><path d="M56.3 45.94998L424.15 45.94998L424.15 45.94998L424.15 260.6L424.15 260.6L56.3 260.6z" /></clipPath><clipPath id="17"><path d="M56.3 84.79999L121.65 84.79999L121.65 84.79999L121.65 104L121.65 104L56.3 104z" /></clipPath><clipPath id="18"><path d="M56.3 45.94998L424.15 45.94998L424.15 45.94998L424.15 260.6L424.15 260.6L56.3 260.6z" /></clipPath><clipPath id="19"><path d="M121.6 84.79999L319.65 84.79999L319.65 84.79999L319.65 104L319.65 104L121.6 104z" /></clipPath><clipPath id="20"><path d="M56.3 45.94998L424.15 45.94998L424.15 45.94998L424.15 260.6L424.15 260.6L56.3 260.6z" /></clipPath><clipPath id="21"><path d="M319.6 84.79999L421.2 84.79999L421.2 84.79999L421.2 104L421.2 104L319.6 104z" /></clipPath><clipPath id="22"><path d="M56.3 45.94998L424.15 45.94998L424.15 45.94998L424.15 260.6L424.15 260.6L56.3 260.6z" /></clipPath><clipPath id="23"><path d="M56.3 104L121.65 104L121.65 104L121.65 123.2L121.65 123.2L56.3 123.2z" /></clipPath><clipPath id="24"><path d="M56.3 45.94998L424.15 45.94998L424.15 45.94998L424.15 260.6L424.15 260.6L56.3 260.6z" /></clipPath><clipPath id="25"><path d="M121.6 104L319.65 104L319.65 104L319.65 123.2L319.65 123.2L121.6 123.2z" /></clipPath><clipPath id="26"><path d="M56.3 45.94998L424.15 45.94998L424.15 45.94998L424.15 260.6L424.15 260.6L56.3 260.6z" /></clipPath><clipPath id="27"><path d="M319.6 104L421.2 104L421.2 104L421.2 123.2L421.2 123.2L319.6 123.2z" /></clipPath><clipPath id="28"><path d="M56.3 45.94998L424.15 45.94998L424.15 45.94998L424.15 260.6L424.15 260.6L56.3 260.6z" /></clipPath><clipPath id="29"><path d="M56.3 123.2L121.65 123.2L121.65 123.2L121.65 142.4L121.65 142.4L56.3 142.4z" /></clipPath><clipPath id="30"><path d="M56.3 45.94998L424.15 45.94998L424.15 45.94998L424.15 260.6L424.15 260.6L56.3 260.6z" /></clipPath><clipPath id="31"><path d="M121.6 123.2L319.65 123.2L319.65 123.2L319.65 142.4L319.65 142.4L121.6 142.4z" /></clipPath><clipPath id="32"><path d="M56.3 45.94998L424.15 45.94998L424.15 45.94998L424.15 260.6L424.15 260.6L56.3 260.6z" /></clipPath><clipPath id="33"><path d="M319.6 123.2L421.2 123.2L421.2 123.2L421.2 142.4L421.2 142.4L319.6 142.4z" /></clipPath><clipPath id="34"><path d="M56.3 45.94998L424.15 45.94998L424.15 45.94998L424.15 260.6L424.15 260.6L56.3 260.6z" /></clipPath><clipPath id="35"><path d="M56.3 142.4L121.65 142.4L121.65 142.4L121.65 161.6L121.65 161.6L56.3 161.6z" /></clipPath><clipPath id="36"><path d="M56.3 45.94998L424.15 45.94998L424.15 45.94998L424.15 260.6L424.15 260.6L56.3 260.6z" /></clipPath><clipPath id="37"><path d="M121.6 142.4L319.65 142.4L319.65 142.4L319.65 161.6L319.65 161.6L121.6 161.6z" /></clipPath><clipPath id="38"><path d="M56.3 45.94998L424.15 45.94998L424.15 45.94998L424.15 260.6L424.15 260.6L56.3 260.6z" /></clipPath><clipPath id="39"><path d="M319.6 142.4L421.2 142.4L421.2 142.4L421.2 161.6L421.2 161.6L319.6 161.6z" /></clipPath><clipPath id="40"><path d="M56.3 45.94998L424.15 45.94998L424.15 45.94998L424.15 260.6L424.15 260.6L56.3 260.6z" /></clipPath><clipPath id="41"><path d="M56.3 161.6L121.65 161.6L121.65 161.6L121.65 180.8L121.65 180.8L56.3 180.8z" /></clipPath><clipPath id="42"><path d="M56.3 45.94998L424.15 45.94998L424.15 45.94998L424.15 260.6L424.15 260.6L56.3 260.6z" /></clipPath><clipPath id="43"><path d="M121.6 161.6L319.65 161.6L319.65 161.6L319.65 180.8L319.65 180.8L121.6 180.8z" /></clipPath><clipPath id="44"><path d="M56.3 45.94998L424.15 45.94998L424.15 45.94998L424.15 260.6L424.15 260.6L56.3 260.6z" /></clipPath><clipPath id="45"><path d="M319.6 161.6L421.2 161.6L421.2 161.6L421.2 180.8L421.2 180.8L319.6 180.8z" /></clipPath><clipPath id="46"><path d="M56.3 45.94998L424.15 45.94998L424.15 45.94998L424.15 260.6L424.15 260.6L56.3 260.6z" /></clipPath><clipPath id="47"><path d="M56.3 180.8L121.65 180.8L121.65 180.8L121.65 200L121.65 200L56.3 200z" /></clipPath><clipPath id="48"><path d="M56.3 45.94998L424.15 45.94998L424.15 45.94998L424.15 260.6L424.15 260.6L56.3 260.6z" /></clipPath><clipPath id="49"><path d="M121.6 180.8L319.65 180.8L319.65 180.8L319.65 200L319.65 200L121.6 200z" /></clipPath><clipPath id="50"><path d="M56.3 45.94998L424.15 45.94998L424.15 45.94998L424.15 260.6L424.15 260.6L56.3 260.6z" /></clipPath><clipPath id="51"><path d="M319.6 180.8L421.2 180.8L421.2 180.8L421.2 200L421.2 200L319.6 200z" /></clipPath><clipPath id="52"><path d="M56.3 45.94998L424.15 45.94998L424.15 45.94998L424.15 260.6L424.15 260.6L56.3 260.6z" /></clipPath><clipPath id="53"><path d="M56.3 200L121.65 200L121.65 200L121.65 219.2L121.65 219.2L56.3 219.2z" /></clipPath><clipPath id="54"><path d="M56.3 45.94998L424.15 45.94998L424.15 45.94998L424.15 260.6L424.15 260.6L56.3 260.6z" /></clipPath><clipPath id="55"><path d="M121.6 200L319.65 200L319.65 200L319.65 219.2L319.65 219.2L121.6 219.2z" /></clipPath><clipPath id="56"><path d="M56.3 45.94998L424.15 45.94998L424.15 45.94998L424.15 260.6L424.15 260.6L56.3 260.6z" /></clipPath><clipPath id="57"><path d="M319.6 200L421.2 200L421.2 200L421.2 219.2L421.2 219.2L319.6 219.2z" /></clipPath><clipPath id="58"><path d="M56.3 45.94998L424.15 45.94998L424.15 45.94998L424.15 260.6L424.15 260.6L56.3 260.6z" /></clipPath><clipPath id="59"><path d="M56.3 219.2L121.65 219.2L121.65 219.2L121.65 238.4L121.65 238.4L56.3 238.4z" /></clipPath><clipPath id="60"><path d="M56.3 45.94998L424.15 45.94998L424.15 45.94998L424.15 260.6L424.15 260.6L56.3 260.6z" /></clipPath><clipPath id="61"><path d="M121.6 219.2L319.65 219.2L319.65 219.2L319.65 238.4L319.65 238.4L121.6 238.4z" /></clipPath><clipPath id="62"><path d="M56.3 45.94998L424.15 45.94998L424.15 45.94998L424.15 260.6L424.15 260.6L56.3 260.6z" /></clipPath><clipPath id="63"><path d="M319.6 219.2L421.2 219.2L421.2 219.2L421.2 238.4L421.2 238.4L319.6 238.4z" /></clipPath><clipPath id="64"><path d="M56.3 45.94998L424.15 45.94998L424.15 45.94998L424.15 260.6L424.15 260.6L56.3 260.6z" /></clipPath><clipPath id="65"><path d="M56.3 238.4L121.65 238.4L121.65 238.4L121.65 258.15L121.65 258.15L56.3 258.15z" /></clipPath><clipPath id="66"><path d="M56.3 45.94998L424.15 45.94998L424.15 45.94998L424.15 260.6L424.15 260.6L56.3 260.6z" /></clipPath><clipPath id="67"><path d="M121.6 238.4L319.65 238.4L319.65 238.4L319.65 258.15L319.65 258.15L121.6 258.15z" /></clipPath><clipPath id="68"><path d="M56.3 45.94998L424.15 45.94998L424.15 45.94998L424.15 260.6L424.15 260.6L56.3 260.6z" /></clipPath><clipPath id="69"><path d="M319.6 238.4L421.2 238.4L421.2 238.4L421.2 258.15L421.2 258.15L319.6 258.15z" /></clipPath><clipPath id="70"><path d="M56.3 45.94998L424.15 45.94998L424.15 45.94998L424.15 260.6L424.15 260.6L56.3 260.6z" /></clipPath><clipPath id="71"><path d="M0 -0.4500122L850.3 -0.4500122L850.3 -0.4500122L850.3 283L850.3 283L0 283z" /></clipPath><clipPath id="72"><path d="M453.4 45.94998L821.25 45.94998L821.25 45.94998L821.25 145.4L821.25 145.4L453.4 145.4z" /></clipPath><clipPath id="73"><path d="M453.4 45.94998L518.75 45.94998L518.75 45.94998L518.75 65.59999L518.75 65.59999L453.4 65.59999z" /></clipPath><clipPath id="74"><path d="M453.4 45.94998L821.25 45.94998L821.25 45.94998L821.25 145.4L821.25 145.4L453.4 145.4z" /></clipPath><clipPath id="75"><path d="M518.7 45.94998L716.75 45.94998L716.75 45.94998L716.75 65.59999L716.75 65.59999L518.7 65.59999z" /></clipPath><clipPath id="76"><path d="M453.4 45.94998L821.25 45.94998L821.25 45.94998L821.25 145.4L821.25 145.4L453.4 145.4z" /></clipPath><clipPath id="77"><path d="M716.7 45.94998L818.3 45.94998L818.3 45.94998L818.3 65.59999L818.3 65.59999L716.7 65.59999z" /></clipPath><clipPath id="78"><path d="M453.4 45.94998L821.25 45.94998L821.25 45.94998L821.25 145.4L821.25 145.4L453.4 145.4z" /></clipPath><clipPath id="79"><path d="M453.4 65.59999L518.75 65.59999L518.75 65.59999L518.75 84.79999L518.75 84.79999L453.4 84.79999z" /></clipPath><clipPath id="80"><path d="M453.4 45.94998L821.25 45.94998L821.25 45.94998L821.25 145.4L821.25 145.4L453.4 145.4z" /></clipPath><clipPath id="81"><path d="M518.7 65.59999L716.75 65.59999L716.75 65.59999L716.75 84.79999L716.75 84.79999L518.7 84.79999z" /></clipPath><clipPath id="82"><path d="M453.4 45.94998L821.25 45.94998L821.25 45.94998L821.25 145.4L821.25 145.4L453.4 145.4z" /></clipPath><clipPath id="83"><path d="M716.7 65.59999L818.3 65.59999L818.3 65.59999L818.3 84.79999L818.3 84.79999L716.7 84.79999z" /></clipPath><clipPath id="84"><path d="M453.4 45.94998L821.25 45.94998L821.25 45.94998L821.25 145.4L821.25 145.4L453.4 145.4z" /></clipPath><clipPath id="85"><path d="M453.4 84.79999L518.75 84.79999L518.75 84.79999L518.75 104L518.75 104L453.4 104z" /></clipPath><clipPath id="86"><path d="M453.4 45.94998L821.25 45.94998L821.25 45.94998L821.25 145.4L821.25 145.4L453.4 145.4z" /></clipPath><clipPath id="87"><path d="M518.7 84.79999L716.75 84.79999L716.75 84.79999L716.75 104L716.75 104L518.7 104z" /></clipPath><clipPath id="88"><path d="M453.4 45.94998L821.25 45.94998L821.25 45.94998L821.25 145.4L821.25 145.4L453.4 145.4z" /></clipPath><clipPath id="89"><path d="M716.7 84.79999L818.3 84.79999L818.3 84.79999L818.3 104L818.3 104L716.7 104z" /></clipPath><clipPath id="90"><path d="M453.4 45.94998L821.25 45.94998L821.25 45.94998L821.25 145.4L821.25 145.4L453.4 145.4z" /></clipPath><clipPath id="91"><path d="M453.4 104L518.75 104L518.75 104L518.75 123.2L518.75 123.2L453.4 123.2z" /></clipPath><clipPath id="92"><path d="M453.4 45.94998L821.25 45.94998L821.25 45.94998L821.25 145.4L821.25 145.4L453.4 145.4z" /></clipPath><clipPath id="93"><path d="M518.7 104L716.75 104L716.75 104L716.75 123.2L716.75 123.2L518.7 123.2z" /></clipPath><clipPath id="94"><path d="M453.4 45.94998L821.25 45.94998L821.25 45.94998L821.25 145.4L821.25 145.4L453.4 145.4z" /></clipPath><clipPath id="95"><path d="M716.7 104L818.3 104L818.3 104L818.3 123.2L818.3 123.2L716.7 123.2z" /></clipPath><clipPath id="96"><path d="M453.4 45.94998L821.25 45.94998L821.25 45.94998L821.25 145.4L821.25 145.4L453.4 145.4z" /></clipPath><clipPath id="97"><path d="M453.4 123.2L518.75 123.2L518.75 123.2L518.75 142.95L518.75 142.95L453.4 142.95z" /></clipPath><clipPath id="98"><path d="M453.4 45.94998L821.25 45.94998L821.25 45.94998L821.25 145.4L821.25 145.4L453.4 145.4z" /></clipPath><clipPath id="99"><path d="M518.7 123.2L716.75 123.2L716.75 123.2L716.75 142.95L716.75 142.95L518.7 142.95z" /></clipPath><clipPath id="100"><path d="M453.4 45.94998L821.25 45.94998L821.25 45.94998L821.25 145.4L821.25 145.4L453.4 145.4z" /></clipPath><clipPath id="101"><path d="M716.7 123.2L818.3 123.2L818.3 123.2L818.3 142.95L818.3 142.95L716.7 142.95z" /></clipPath><clipPath id="102"><path d="M453.4 45.94998L821.25 45.94998L821.25 45.94998L821.25 145.4L821.25 145.4L453.4 145.4z" /></clipPath><clipPath id="103"><path d="M0 -0.4500122L850.3 -0.4500122L850.3 -0.4500122L850.3 283L850.3 283L0 283z" /></clipPath><clipPath id="104"><path d="M204 5.549988L695 5.549988L695 5.549988L695 45.54999L695 45.54999L204 45.54999z" /></clipPath><clipPath id="105"><path d="M0 -0.4500122L850.3 -0.4500122L850.3 -0.4500122L850.3 283L850.3 283L0 283z" /></clipPath><clipPath id="106"><path d="M0 -0.4500122L853 -0.4500122L853 -0.4500122L853 287.55L853 287.55L0 287.55z" /></clipPath></defs><g transform="matrix(1.333333 0 0 1.333333 0 0)"><g><g clip-path="url(#1)"><g clip-path="url(#2)"><path transform="matrix(1 0 0 -1 0 283)" d="M0 283.45L850.32 283.45L850.32 283.45L850.32 0.01000977L850.32 0.01000977L0 0.01000977z" stroke="none" fill="#FFFFFF" fill-rule="evenodd" /><path transform="matrix(1 0 0 -1 0 283)" d="M0 283.45L850.32 283.45L850.32 283.45L850.32 0.4900208L850.32 0.4900208L0 0.4900208z" stroke="none" fill="#0B0D07" fill-rule="evenodd" /></g><g clip-path="url(#3)"><g clip-path="url(#4)"><g clip-path="url(#5)"><path transform="matrix(1 0 0 -1 0 283)" d="M56.45 236.65L121.5 236.65L121.5 236.65L121.5 217.25L121.5 217.25L56.45 217.25z" stroke="none" fill="#A5A5A5" fill-rule="evenodd" /></g></g></g><g clip-path="url(#6)"><g clip-path="url(#7)"><path transform="matrix(1 0 0 -1 0 283)" d="M121.75 236.65L319.5 236.65L319.5 236.65L319.5 217.25L319.5 217.25L121.75 217.25z" stroke="none" fill="#A5A5A5" fill-rule="evenodd" /></g></g><g clip-path="url(#8)"><g clip-path="url(#9)"><path transform="matrix(1 0 0 -1 0 283)" d="M319.75 236.65L421.05 236.65L421.05 236.65L421.05 217.25L421.05 217.25L319.75 217.25z" stroke="none" fill="#A5A5A5" fill-rule="evenodd" /></g></g><g clip-path="url(#10)"><g clip-path="url(#11)"><path transform="matrix(1 0 0 -1 0 283)" d="M56.45 217L121.5 217L121.5 217L121.5 198.05L121.5 198.05L56.45 198.05z" stroke="none" fill="#E1E1E1" fill-rule="evenodd" /></g></g><g clip-path="url(#12)"><g clip-path="url(#13)"><path transform="matrix(1 0 0 -1 0 283)" d="M121.75 217L319.5 217L319.5 217L319.5 198.05L319.5 198.05L121.75 198.05z" stroke="none" fill="#E1E1E1" fill-rule="evenodd" /></g></g><g clip-path="url(#14)"><g clip-path="url(#15)"><path transform="matrix(1 0 0 -1 0 283)" d="M319.75 217L421.05 217L421.05 217L421.05 198.05L421.05 198.05L319.75 198.05z" stroke="none" fill="#E1E1E1" fill-rule="evenodd" /></g></g><g clip-path="url(#16)"><g clip-path="url(#17)"><path transform="matrix(1 0 0 -1 0 283)" d="M56.45 197.8L121.5 197.8L121.5 197.8L121.5 178.85L121.5 178.85L56.45 178.85z" stroke="none" fill="#F0F0F0" fill-rule="evenodd" /></g></g><g clip-path="url(#18)"><g clip-path="url(#19)"><path transform="matrix(1 0 0 -1 0 283)" d="M121.75 197.8L319.5 197.8L319.5 197.8L319.5 178.85L319.5 178.85L121.75 178.85z" stroke="none" fill="#F0F0F0" fill-rule="evenodd" /></g></g><g clip-path="url(#20)"><g clip-path="url(#21)"><path transform="matrix(1 0 0 -1 0 283)" d="M319.75 197.8L421.05 197.8L421.05 197.8L421.05 178.85L421.05 178.85L319.75 178.85z" stroke="none" fill="#F0F0F0" fill-rule="evenodd" /></g></g><g clip-path="url(#22)"><g clip-path="url(#23)"><path transform="matrix(1 0 0 -1 0 283)" d="M56.45 178.6L121.5 178.6L121.5 178.6L121.5 159.65L121.5 159.65L56.45 159.65z" stroke="none" fill="#E1E1E1" fill-rule="evenodd" /></g></g><g clip-path="url(#24)"><g clip-path="url(#25)"><path transform="matrix(1 0 0 -1 0 283)" d="M121.75 178.6L319.5 178.6L319.5 178.6L319.5 159.65L319.5 159.65L121.75 159.65z" stroke="none" fill="#E1E1E1" fill-rule="evenodd" /></g></g><g clip-path="url(#26)"><g clip-path="url(#27)"><path transform="matrix(1 0 0 -1 0 283)" d="M319.75 178.6L421.05 178.6L421.05 178.6L421.05 159.65L421.05 159.65L319.75 159.65z" stroke="none" fill="#E1E1E1" fill-rule="evenodd" /></g></g><g clip-path="url(#28)"><g clip-path="url(#29)"><path transform="matrix(1 0 0 -1 0 283)" d="M56.45 159.4L121.5 159.4L121.5 159.4L121.5 140.45L121.5 140.45L56.45 140.45z" stroke="none" fill="#F0F0F0" fill-rule="evenodd" /></g></g><g clip-path="url(#30)"><g clip-path="url(#31)"><path transform="matrix(1 0 0 -1 0 283)" d="M121.75 159.4L319.5 159.4L319.5 159.4L319.5 140.45L319.5 140.45L121.75 140.45z" stroke="none" fill="#F0F0F0" fill-rule="evenodd" /></g></g><g clip-path="url(#32)"><g clip-path="url(#33)"><path transform="matrix(1 0 0 -1 0 283)" d="M319.75 159.4L421.05 159.4L421.05 159.4L421.05 140.45L421.05 140.45L319.75 140.45z" stroke="none" fill="#F0F0F0" fill-rule="evenodd" /></g></g><g clip-path="url(#34)"><g clip-path="url(#35)"><path transform="matrix(1 0 0 -1 0 283)" d="M56.45 140.2L121.5 140.2L121.5 140.2L121.5 121.25L121.5 121.25L56.45 121.25z" stroke="none" fill="#E1E1E1" fill-rule="evenodd" /></g></g><g clip-path="url(#36)"><g clip-path="url(#37)"><path transform="matrix(1 0 0 -1 0 283)" d="M121.75 140.2L319.5 140.2L319.5 140.2L319.5 121.25L319.5 121.25L121.75 121.25z" stroke="none" fill="#E1E1E1" fill-rule="evenodd" /></g></g><g clip-path="url(#38)"><g clip-path="url(#39)"><path transform="matrix(1 0 0 -1 0 283)" d="M319.75 140.2L421.05 140.2L421.05 140.2L421.05 121.25L421.05 121.25L319.75 121.25z" stroke="none" fill="#E1E1E1" fill-rule="evenodd" /></g></g><g clip-path="url(#40)"><g clip-path="url(#41)"><path transform="matrix(1 0 0 -1 0 283)" d="M56.45 121L121.5 121L121.5 121L121.5 102.05L121.5 102.05L56.45 102.05z" stroke="none" fill="#F0F0F0" fill-rule="evenodd" /></g></g><g clip-path="url(#42)"><g clip-path="url(#43)"><path transform="matrix(1 0 0 -1 0 283)" d="M121.75 121L319.5 121L319.5 121L319.5 102.05L319.5 102.05L121.75 102.05z" stroke="none" fill="#F0F0F0" fill-rule="evenodd" /></g></g><g clip-path="url(#44)"><g clip-path="url(#45)"><path transform="matrix(1 0 0 -1 0 283)" d="M319.75 121L421.05 121L421.05 121L421.05 102.05L421.05 102.05L319.75 102.05z" stroke="none" fill="#F0F0F0" fill-rule="evenodd" /></g></g><g clip-path="url(#46)"><g clip-path="url(#47)"><path transform="matrix(1 0 0 -1 0 283)" d="M56.45 101.8L121.5 101.8L121.5 101.8L121.5 82.85002L121.5 82.85002L56.45 82.85002z" stroke="none" fill="#E1E1E1" fill-rule="evenodd" /></g></g><g clip-path="url(#48)"><g clip-path="url(#49)"><path transform="matrix(1 0 0 -1 0 283)" d="M121.75 101.8L319.5 101.8L319.5 101.8L319.5 82.85002L319.5 82.85002L121.75 82.85002z" stroke="none" fill="#E1E1E1" fill-rule="evenodd" /></g></g><g clip-path="url(#50)"><g clip-path="url(#51)"><path transform="matrix(1 0 0 -1 0 283)" d="M319.75 101.8L421.05 101.8L421.05 101.8L421.05 82.85002L421.05 82.85002L319.75 82.85002z" stroke="none" fill="#E1E1E1" fill-rule="evenodd" /></g></g><g clip-path="url(#52)"><g clip-path="url(#53)"><path transform="matrix(1 0 0 -1 0 283)" d="M56.45 82.60001L121.5 82.60001L121.5 82.60001L121.5 63.65001L121.5 63.65001L56.45 63.65001z" stroke="none" fill="#F0F0F0" fill-rule="evenodd" /></g></g><g clip-path="url(#54)"><g clip-path="url(#55)"><path transform="matrix(1 0 0 -1 0 283)" d="M121.75 82.60001L319.5 82.60001L319.5 82.60001L319.5 63.65001L319.5 63.65001L121.75 63.65001z" stroke="none" fill="#F0F0F0" fill-rule="evenodd" /></g></g><g clip-path="url(#56)"><g clip-path="url(#57)"><path transform="matrix(1 0 0 -1 0 283)" d="M319.75 82.60001L421.05 82.60001L421.05 82.60001L421.05 63.65001L421.05 63.65001L319.75 63.65001z" stroke="none" fill="#F0F0F0" fill-rule="evenodd" /></g></g><g clip-path="url(#58)"><g clip-path="url(#59)"><path transform="matrix(1 0 0 -1 0 283)" d="M56.45 63.40001L121.5 63.40001L121.5 63.40001L121.5 44.45001L121.5 44.45001L56.45 44.45001z" stroke="none" fill="#E1E1E1" fill-rule="evenodd" /></g></g><g clip-path="url(#60)"><g clip-path="url(#61)"><path transform="matrix(1 0 0 -1 0 283)" d="M121.75 63.40001L319.5 63.40001L319.5 63.40001L319.5 44.45001L319.5 44.45001L121.75 44.45001z" stroke="none" fill="#E1E1E1" fill-rule="evenodd" /></g></g><g clip-path="url(#62)"><g clip-path="url(#63)"><path transform="matrix(1 0 0 -1 0 283)" d="M319.75 63.40001L421.05 63.40001L421.05 63.40001L421.05 44.45001L421.05 44.45001L319.75 44.45001z" stroke="none" fill="#E1E1E1" fill-rule="evenodd" /></g></g><g clip-path="url(#64)"><g clip-path="url(#65)"><path transform="matrix(1 0 0 -1 0 283)" d="M56.45 44.20001L121.5 44.20001L121.5 44.20001L121.5 25.25L121.5 25.25L56.45 25.25z" stroke="none" fill="#F0F0F0" fill-rule="evenodd" /></g></g><g clip-path="url(#66)"><g clip-path="url(#67)"><path transform="matrix(1 0 0 -1 0 283)" d="M121.75 44.20001L319.5 44.20001L319.5 44.20001L319.5 25.25L319.5 25.25L121.75 25.25z" stroke="none" fill="#F0F0F0" fill-rule="evenodd" /></g></g><g clip-path="url(#68)"><g clip-path="url(#69)"><path transform="matrix(1 0 0 -1 0 283)" d="M319.75 44.20001L421.05 44.20001L421.05 44.20001L421.05 25.25L421.05 25.25L319.75 25.25z" stroke="none" fill="#F0F0F0" fill-rule="evenodd" /></g></g><g clip-path="url(#70)"><path transform="matrix(1 0 0 -1 0 283)" d="M56.06 236.81L421.39 236.81" stroke="#FFFFFF" stroke-width="0.48" fill="none" /><path transform="matrix(1 0 0 -1 0 283)" d="M56.06 217.16L421.39 217.16" stroke="#FFFFFF" stroke-width="0.48" fill="none" /><path transform="matrix(1 0 0 -1 0 283)" d="M56.06 197.96L421.39 197.96" stroke="#FFFFFF" stroke-width="0.48" fill="none" /><path transform="matrix(1 0 0 -1 0 283)" d="M56.06 178.76L421.39 178.76" stroke="#FFFFFF" stroke-width="0.48" fill="none" /><path transform="matrix(1 0 0 -1 0 283)" d="M56.06 159.56L421.39 159.56" stroke="#FFFFFF" stroke-width="0.48" fill="none" /><path transform="matrix(1 0 0 -1 0 283)" d="M56.06 140.36L421.39 140.36" stroke="#FFFFFF" stroke-width="0.48" fill="none" /><path transform="matrix(1 0 0 -1 0 283)" d="M56.06 121.16L421.39 121.16" stroke="#FFFFFF" stroke-width="0.48" fill="none" /><path transform="matrix(1 0 0 -1 0 283)" d="M56.06 101.96L421.39 101.96" stroke="#FFFFFF" stroke-width="0.48" fill="none" /><path transform="matrix(1 0 0 -1 0 283)" d="M56.06 82.76001L421.39 82.76001" stroke="#FFFFFF" stroke-width="0.48" fill="none" /><path transform="matrix(1 0 0 -1 0 283)" d="M56.06 63.56001L421.39 63.56001" stroke="#FFFFFF" stroke-width="0.48" fill="none" /><path transform="matrix(1 0 0 -1 0 283)" d="M56.06 44.36002L421.39 44.36002" stroke="#FFFFFF" stroke-width="0.48" fill="none" /><path transform="matrix(1 0 0 -1 0 283)" d="M56.06 25.16L421.39 25.16" stroke="#FFFFFF" stroke-width="0.48" fill="none" /><path transform="matrix(1 0 0 -1 0 283)" d="M56.3 237.05L56.3 25.40002" stroke="#FFFFFF" stroke-width="0.48" fill="none" /><path transform="matrix(1 0 0 -1 0 283)" d="M121.6 237.05L121.6 25.40002" stroke="#FFFFFF" stroke-width="0.48" fill="none" /><path transform="matrix(1 0 0 -1 0 283)" d="M319.6 237.05L319.6 25.40002" stroke="#FFFFFF" stroke-width="0.48" fill="none" /><path transform="matrix(1 0 0 -1 0 283)" d="M421.15 237.05L421.15 25.40002" stroke="#FFFFFF" stroke-width="0.48" fill="none" /></g><g clip-path="url(#71)"><g clip-path="url(#72)"><g clip-path="url(#73)"><path transform="matrix(1 0 0 -1 0 283)" d="M453.55 236.65L518.6 236.65L518.6 236.65L518.6 217.25L518.6 217.25L453.55 217.25z" stroke="none" fill="#A5A5A5" fill-rule="evenodd" /></g></g></g><g clip-path="url(#74)"><g clip-path="url(#75)"><path transform="matrix(1 0 0 -1 0 283)" d="M518.85 236.65L716.6 236.65L716.6 236.65L716.6 217.25L716.6 217.25L518.85 217.25z" stroke="none" fill="#A5A5A5" fill-rule="evenodd" /></g></g><g clip-path="url(#76)"><g clip-path="url(#77)"><path transform="matrix(1 0 0 -1 0 283)" d="M716.85 236.65L818.15 236.65L818.15 236.65L818.15 217.25L818.15 217.25L716.85 217.25z" stroke="none" fill="#A5A5A5" fill-rule="evenodd" /></g></g><g clip-path="url(#78)"><g clip-path="url(#79)"><path transform="matrix(1 0 0 -1 0 283)" d="M453.55 217L518.6 217L518.6 217L518.6 198.05L518.6 198.05L453.55 198.05z" stroke="none" fill="#E1E1E1" fill-rule="evenodd" /></g></g><g clip-path="url(#80)"><g clip-path="url(#81)"><path transform="matrix(1 0 0 -1 0 283)" d="M518.85 217L716.6 217L716.6 217L716.6 198.05L716.6 198.05L518.85 198.05z" stroke="none" fill="#E1E1E1" fill-rule="evenodd" /></g></g><g clip-path="url(#82)"><g clip-path="url(#83)"><path transform="matrix(1 0 0 -1 0 283)" d="M716.85 217L818.15 217L818.15 217L818.15 198.05L818.15 198.05L716.85 198.05z" stroke="none" fill="#E1E1E1" fill-rule="evenodd" /></g></g><g clip-path="url(#84)"><g clip-path="url(#85)"><path transform="matrix(1 0 0 -1 0 283)" d="M453.55 197.8L518.6 197.8L518.6 197.8L518.6 178.85L518.6 178.85L453.55 178.85z" stroke="none" fill="#F0F0F0" fill-rule="evenodd" /></g></g><g clip-path="url(#86)"><g clip-path="url(#87)"><path transform="matrix(1 0 0 -1 0 283)" d="M518.85 197.8L716.6 197.8L716.6 197.8L716.6 178.85L716.6 178.85L518.85 178.85z" stroke="none" fill="#F0F0F0" fill-rule="evenodd" /></g></g><g clip-path="url(#88)"><g clip-path="url(#89)"><path transform="matrix(1 0 0 -1 0 283)" d="M716.85 197.8L818.15 197.8L818.15 197.8L818.15 178.85L818.15 178.85L716.85 178.85z" stroke="none" fill="#F0F0F0" fill-rule="evenodd" /></g></g><g clip-path="url(#90)"><g clip-path="url(#91)"><path transform="matrix(1 0 0 -1 0 283)" d="M453.55 178.6L518.6 178.6L518.6 178.6L518.6 159.65L518.6 159.65L453.55 159.65z" stroke="none" fill="#E1E1E1" fill-rule="evenodd" /></g></g><g clip-path="url(#92)"><g clip-path="url(#93)"><path transform="matrix(1 0 0 -1 0 283)" d="M518.85 178.6L716.6 178.6L716.6 178.6L716.6 159.65L716.6 159.65L518.85 159.65z" stroke="none" fill="#E1E1E1" fill-rule="evenodd" /></g></g><g clip-path="url(#94)"><g clip-path="url(#95)"><path transform="matrix(1 0 0 -1 0 283)" d="M716.85 178.6L818.15 178.6L818.15 178.6L818.15 159.65L818.15 159.65L716.85 159.65z" stroke="none" fill="#E1E1E1" fill-rule="evenodd" /></g></g><g clip-path="url(#96)"><g clip-path="url(#97)"><path transform="matrix(1 0 0 -1 0 283)" d="M453.55 159.4L518.6 159.4L518.6 159.4L518.6 140.45L518.6 140.45L453.55 140.45z" stroke="none" fill="#F0F0F0" fill-rule="evenodd" /></g></g><g clip-path="url(#98)"><g clip-path="url(#99)"><path transform="matrix(1 0 0 -1 0 283)" d="M518.85 159.4L716.6 159.4L716.6 159.4L716.6 140.45L716.6 140.45L518.85 140.45z" stroke="none" fill="#F0F0F0" fill-rule="evenodd" /></g></g><g clip-path="url(#100)"><g clip-path="url(#101)"><path transform="matrix(1 0 0 -1 0 283)" d="M716.85 159.4L818.15 159.4L818.15 159.4L818.15 140.45L818.15 140.45L716.85 140.45z" stroke="none" fill="#F0F0F0" fill-rule="evenodd" /></g></g><g clip-path="url(#102)"><path transform="matrix(1 0 0 -1 0 283)" d="M453.16 236.81L818.49 236.81" stroke="#FFFFFF" stroke-width="0.48" fill="none" /><path transform="matrix(1 0 0 -1 0 283)" d="M453.16 217.16L818.49 217.16" stroke="#FFFFFF" stroke-width="0.48" fill="none" /><path transform="matrix(1 0 0 -1 0 283)" d="M453.16 197.96L818.49 197.96" stroke="#FFFFFF" stroke-width="0.48" fill="none" /><path transform="matrix(1 0 0 -1 0 283)" d="M453.16 178.76L818.49 178.76" stroke="#FFFFFF" stroke-width="0.48" fill="none" /><path transform="matrix(1 0 0 -1 0 283)" d="M453.16 159.56L818.49 159.56" stroke="#FFFFFF" stroke-width="0.48" fill="none" /><path transform="matrix(1 0 0 -1 0 283)" d="M453.16 140.36L818.49 140.36" stroke="#FFFFFF" stroke-width="0.48" fill="none" /><path transform="matrix(1 0 0 -1 0 283)" d="M453.4 237.05L453.4 140.6" stroke="#FFFFFF" stroke-width="0.48" fill="none" /><path transform="matrix(1 0 0 -1 0 283)" d="M518.7 237.05L518.7 140.6" stroke="#FFFFFF" stroke-width="0.48" fill="none" /><path transform="matrix(1 0 0 -1 0 283)" d="M716.7 237.05L716.7 140.6" stroke="#FFFFFF" stroke-width="0.48" fill="none" /><path transform="matrix(1 0 0 -1 0 283)" d="M818.25 237.05L818.25 140.6" stroke="#FFFFFF" stroke-width="0.48" fill="none" /></g><g clip-path="url(#103)"><g clip-path="url(#104)"><g transform="matrix(0.7496774 0 0 0.7455319 204 5.549988)"><g transform="matrix(1 0 0 1 0 0)"><image x="0" y="0" xlink:href="img_09.png" width="651" height="47" /></g></g></g></g><g clip-path="url(#105)"><g clip-path="url(#106)"><g transform="matrix(0.7495238 0 0 0.7485714 0 -0.4500122)"><g transform="matrix(1 0 0 1 0 0)"><image x="0" y="0" xlink:href="img_10.png" width="1134" height="378" /></g></g></g></g></g></g></g></svg>