<svg xmlns="http://www.w3.org/2000/svg" xmlns:xlink="http://www.w3.org/1999/xlink" id="body_9" preserveAspectRatio="xMinYMin meet" viewBox="0 0 1133 377"><defs><clipPath id="1"><path d="M0 283L0 -0.4500122L0 -0.4500122L850.3 -0.4500122L850.3 -0.4500122L850.3 283L850.3 283L0 283z" /></clipPath><clipPath id="2"><path d="M0 -0.4500122L850.3 -0.4500122L850.3 -0.4500122L850.3 283L850.3 283L0 283z" /></clipPath><clipPath id="3"><path d="M0 -0.4500122L850.3 -0.4500122L850.3 -0.4500122L850.3 283L850.3 283L0 283z" /></clipPath><clipPath id="4"><path d="M3 45.54999L292 45.54999L292 45.54999L292 230.55L292 230.55L3 230.55z" /></clipPath><clipPath id="5"><path d="M0 -0.4500122L850.3 -0.4500122L850.3 -0.4500122L850.3 283L850.3 283L0 283z" /></clipPath><clipPath id="6"><path d="M292 82.54999L571 82.54999L571 82.54999L571 228.55L571 228.55L292 228.55z" /></clipPath><clipPath id="7"><path d="M0 -0.4500122L850.3 -0.4500122L850.3 -0.4500122L850.3 283L850.3 283L0 283z" /></clipPath><clipPath id="8"><path d="M573 84.54999L849 84.54999L849 84.54999L849 225.55L849 225.55L573 225.55z" /></clipPath><clipPath id="9"><path d="M0 -0.4500122L850.3 -0.4500122L850.3 -0.4500122L850.3 283L850.3 283L0 283z" /></clipPath><clipPath id="10"><path d="M0 -0.4500122L853 -0.4500122L853 -0.4500122L853 287.55L853 287.55L0 287.55z" /></clipPath></defs><g transform="matrix(1.333333 0 0 1.333333 0 0)"><g><g clip-path="url(#1)"><g clip-path="url(#2)"><path transform="matrix(1 0 0 -1 0 283)" d="M0 283.45L850.32 283.45L850.32 283.45L850.32 0.01000977L850.32 0.01000977L0 0.01000977z" stroke="none" fill="#FFFFFF" fill-rule="evenodd" /><path transform="matrix(1 0 0 -1 0 283)" d="M0 283.45L850.32 283.45L850.32 283.45L850.32 0.4900208L850.32 0.4900208L0 0.4900208z" stroke="none" fill="#010101" fill-rule="evenodd" /><path transform="matrix(1 0 0 -1 0 283)" d="M0 237.01L183.84 237.01L183.84 237.01L183.84 206.05L183.84 206.05L0 206.05z" stroke="none" fill="#F2F2F2" fill-rule="evenodd" /></g><g clip-path="url(#3)"><g clip-path="url(#4)"><g transform="matrix(0.7505512 0 0 0.7500001 3 45.50999)"><g transform="matrix(1 0 0 1 0 0)"><image x="0" y="0" xlink:href="img_38.png" width="381" height="240" /></g></g></g></g><g clip-path="url(#5)"><g clip-path="url(#6)"><g transform="matrix(0.75 0 0 0.7460317 291.96 82.58998)"><g transform="matrix(1 0 0 1 0 0)"><image x="0" y="0" xlink:href="img_39.png" width="368" height="189" /></g></g></g></g><g clip-path="url(#7)"><g clip-path="url(#8)"><g transform="matrix(0.75 0 0 0.747033 573 84.50998)"><g transform="matrix(1 0 0 1 0 0)"><image x="0" y="0" xlink:href="img_40.png" width="364" height="182" /></g></g></g></g><g clip-path="url(#9)"><g clip-path="url(#10)"><g transform="matrix(0.7495238 0 0 0.7485714 0 -0.4500122)"><g transform="matrix(1 0 0 1 0 0)"><image x="0" y="0" xlink:href="img_41.png" width="1134" height="378" /></g></g></g></g></g></g></g></svg>